<svg xmlns="http://www.w3.org/2000/svg" xmlns:xlink="http://www.w3.org/1999/xlink" viewBox="0 0 828.28 654.98"><defs><style>.cls-1{fill:none;}.cls-2{clip-path:url(#clip-path);}.cls-3{clip-path:url(#clip-path-2);}.cls-4{fill:url(#未命名的渐变);}.cls-5{clip-path:url(#clip-path-3);}.cls-6{fill:url(#未命名的渐变_2);}.cls-7{clip-path:url(#clip-path-4);}.cls-8{fill:url(#未命名的渐变_3);}.cls-9{fill:#e6e6e6;}.cls-10{fill:#ececec;}.cls-11{fill:#f2f2f2;}.cls-12{fill:#fff;}.cls-13{opacity:0.7;}.cls-14{clip-path:url(#clip-path-5);}</style><clipPath id="clip-path" transform="translate(91.43 3)"><rect class="cls-1" width="644.05" height="649.14"/></clipPath><clipPath id="clip-path-2" transform="translate(91.43 3)"><path class="cls-1" d="M584.29,66.71,258.73,95.06c-30.32,2.64-58.29,28.64-62.68,57.76L133.61,567c-4.2,27.84,15.49,52.57,44.24,55.07l307.76,26.8c35.7,3.1,70-20.27,75.49-52.1l82.16-475.1c5.8-33.51-21.08-58.26-59-55"/></clipPath><linearGradient id="未命名的渐变" x1="-7462.48" y1="12.46" x2="-7461.48" y2="12.46" gradientTransform="matrix(86.92, -582.73, 582.73, 0, 641808.46, -4347932.56)" gradientUnits="userSpaceOnUse"><stop offset="0" stop-color="#001ce9"/><stop offset="1" stop-color="#e90082"/></linearGradient><clipPath id="clip-path-3" transform="translate(91.43 3)"><path class="cls-1" d="M517.77,33.5,192.21,61.85c-30.32,2.64-58.29,28.64-62.68,57.76L67.09,533.79c-4.2,27.84,15.49,52.57,44.24,55.07l307.75,26.8c35.71,3.11,70-20.27,75.5-52.09L576.74,88.46c5.8-33.51-21.08-58.25-59-55"/></clipPath><linearGradient id="未命名的渐变_2" x1="-7462.48" y1="12.52" x2="-7461.48" y2="12.52" gradientTransform="translate(-6883.97 -4347965.81) rotate(-90) scale(582.73)" gradientUnits="userSpaceOnUse"><stop offset="0" stop-color="#0057df"/><stop offset="1" stop-color="#756a96"/></linearGradient><clipPath id="clip-path-4" transform="translate(91.43 3)"><path class="cls-1" d="M451.24.29,125.69,28.64C95.36,31.28,67.4,57.29,63,86.4L.56,500.58c-4.19,27.84,15.5,52.57,44.25,55.07l307.75,26.8c35.71,3.11,70-20.26,75.5-52.09l82.16-475.1C516,21.74,489.13-3,451.24.29"/></clipPath><linearGradient id="未命名的渐变_3" x1="-7462.48" y1="12.46" x2="-7461.48" y2="12.46" gradientTransform="matrix(86.92, -582.73, 582.73, 0, 641675.46, -4347999.06)" gradientUnits="userSpaceOnUse"><stop offset="0" stop-color="#0092d4"/><stop offset="1" stop-color="#00d4ab"/></linearGradient><clipPath id="clip-path-5" transform="translate(91.43 3)"><rect class="cls-1" x="98.77" y="96.01" width="281.42" height="223.62"/></clipPath></defs><g id="图层_2" data-name="图层 2"><g id="图层_1-2" data-name="图层 1"><g id="图层_2-2" data-name="图层 2"><g id="图层_1-2-2" data-name="图层 1-2"><g class="cls-2"><g class="cls-3"><polygon class="cls-4" points="133.04 654.98 220.84 66.41 828.28 66.41 740.49 654.98 133.04 654.98"/></g><g class="cls-5"><rect class="cls-6" x="154.32" y="33.21" width="519.65" height="588.56"/></g><g class="cls-7"><polygon class="cls-8" points="0 588.56 87.8 0 695.24 0 607.44 588.56 0 588.56"/></g></g><path class="cls-9" d="M273.12,393.42a13.71,13.71,0,0,0-12.48-6.05,17.22,17.22,0,0,0-6.44,1.76l-72,40.63-.17.11a24.58,24.58,0,0,0-12,17.63l-.25,1.6c-1.27,8.13,1.43,15,7.61,19.29l58.71,37.34.62.35a14.53,14.53,0,0,0,6.51,1.7h1.09a16.9,16.9,0,0,0,11.26-5.25,20.53,20.53,0,0,0,5.84-11.4,17.75,17.75,0,0,0-1.16-10,15.4,15.4,0,0,0-6.43-7.5L214,449.27,264.16,422a22.83,22.83,0,0,0,11.45-15.73,17.25,17.25,0,0,0-2.49-12.8" transform="translate(91.43 3)"/><path class="cls-9" d="M390.9,347.05h0c1-5.39,0-10.21-2.9-13.94a14.51,14.51,0,0,0-13.55-5.53,19.42,19.42,0,0,0-10.72,4.66,23.78,23.78,0,0,0-6.4,8.68L277.54,515.21a23.07,23.07,0,0,0-1.79,5.55A17.77,17.77,0,0,0,278,533.67a14.51,14.51,0,0,0,11.83,6.86h1.67a16.54,16.54,0,0,0,9.31-3.39,20.53,20.53,0,0,0,6.49-8.24L388.92,353a24.74,24.74,0,0,0,2-5.92" transform="translate(91.43 3)"/><path class="cls-9" d="M508.44,419.4l-83.11-40-.14-.06a15.57,15.57,0,0,0-7.53-1.27,19.94,19.94,0,0,0-12.77,6,22.56,22.56,0,0,0-6.55,12.26,17.47,17.47,0,0,0,1.44,11,15.64,15.64,0,0,0,7.6,7.64l55.06,27.24-67.6,30.4a22.44,22.44,0,0,0-8.43,6.38,21.06,21.06,0,0,0-4.72,9.83,17.68,17.68,0,0,0,2.69,13.56A15.27,15.27,0,0,0,396.84,509h1.26a17.59,17.59,0,0,0,6.14-1.39l97.49-42.7.18-.08c9.39-4.42,15.28-11.51,17-20.5l.4-2c1.91-9.85-2.06-18.18-10.89-22.85" transform="translate(91.43 3)"/><path class="cls-10" d="M269.12,386.41a13.71,13.71,0,0,0-12.48-6,17.22,17.22,0,0,0-6.44,1.76l-72,40.63-.18.1a24.54,24.54,0,0,0-12,17.64l-.25,1.6c-1.27,8.13,1.43,15,7.61,19.28l58.71,37.34.61.36a14.81,14.81,0,0,0,6.52,1.7h1.08a16.85,16.85,0,0,0,11.26-5.24,20.65,20.65,0,0,0,5.84-11.41,17.83,17.83,0,0,0-1.16-10,15.42,15.42,0,0,0-6.43-7.51L210,442.27,260.16,415a22.87,22.87,0,0,0,11.45-15.74,17.25,17.25,0,0,0-2.49-12.8" transform="translate(91.43 3)"/><path class="cls-10" d="M386.9,340.05h0c1-5.39,0-10.21-2.9-13.93a14.54,14.54,0,0,0-13.55-5.54,19.42,19.42,0,0,0-10.72,4.66,23.81,23.81,0,0,0-6.4,8.69L273.54,508.21a22.85,22.85,0,0,0-1.79,5.54A17.79,17.79,0,0,0,274,526.67a14.52,14.52,0,0,0,11.83,6.85h1.67a16.64,16.64,0,0,0,9.31-3.39,20.38,20.38,0,0,0,6.48-8.25L384.92,346a25.19,25.19,0,0,0,2-5.92" transform="translate(91.43 3)"/><path class="cls-10" d="M504.43,412.39l-83.1-40-.15-.07a15.53,15.53,0,0,0-7.52-1.26,20,20,0,0,0-12.78,6,22.45,22.45,0,0,0-6.54,12.25,17.53,17.53,0,0,0,1.44,11,15.68,15.68,0,0,0,7.59,7.63l55.07,27.24-67.6,30.4a22.46,22.46,0,0,0-8.43,6.39,21.09,21.09,0,0,0-4.73,9.82,17.73,17.73,0,0,0,2.7,13.56A15.22,15.22,0,0,0,392.84,502h1.26a18.06,18.06,0,0,0,6.14-1.4l97.49-42.69.18-.08c9.39-4.43,15.27-11.52,17-20.51l.39-2c1.91-9.85-2.06-18.17-10.89-22.85" transform="translate(91.43 3)"/><path class="cls-11" d="M265.11,379.41a13.66,13.66,0,0,0-12.47-6.05,17.22,17.22,0,0,0-6.44,1.76l-72,40.63-.18.11a24.55,24.55,0,0,0-12,17.63l-.25,1.6c-1.28,8.13,1.42,15,7.61,19.29l58.71,37.34.61.35a14.54,14.54,0,0,0,6.52,1.7h1.08a17,17,0,0,0,11.27-5.24,20.7,20.7,0,0,0,5.83-11.41,17.93,17.93,0,0,0-1.15-10,15.4,15.4,0,0,0-6.43-7.5L206,435.27l50.13-27.33a21.75,21.75,0,0,0,7.42-6.49,21.43,21.43,0,0,0,4-9.24,17.15,17.15,0,0,0-2.49-12.8" transform="translate(91.43 3)"/><path class="cls-11" d="M382.89,333h0c1-5.39,0-10.21-2.9-13.94a14.52,14.52,0,0,0-13.56-5.53,19.35,19.35,0,0,0-10.71,4.66,23.69,23.69,0,0,0-6.4,8.68L269.54,501.2a23.09,23.09,0,0,0-1.8,5.55A17.87,17.87,0,0,0,270,519.66a14.54,14.54,0,0,0,11.84,6.86h1.66a16.6,16.6,0,0,0,9.32-3.39,20.35,20.35,0,0,0,6.48-8.24L380.92,339a24.82,24.82,0,0,0,2-5.93" transform="translate(91.43 3)"/><path class="cls-11" d="M500.43,405.39l-83.1-40-.15-.07a15.53,15.53,0,0,0-7.52-1.27,20,20,0,0,0-12.78,6,22.45,22.45,0,0,0-6.54,12.25,17.4,17.4,0,0,0,1.44,11,15.7,15.7,0,0,0,7.59,7.64l55.06,27.24-67.59,30.4A22.39,22.39,0,0,0,378.4,465a21,21,0,0,0-4.72,9.82,17.73,17.73,0,0,0,2.7,13.56A15.25,15.25,0,0,0,388.84,495h1.26a17.59,17.59,0,0,0,6.14-1.39l97.49-42.7.18-.08c9.39-4.42,15.27-11.51,17-20.5l.39-2c1.91-9.85-2.06-18.18-10.89-22.85" transform="translate(91.43 3)"/><path class="cls-12" d="M265.11,379.41a13.66,13.66,0,0,0-12.47-6.05,17.22,17.22,0,0,0-6.44,1.76l-72,40.63-.18.11a24.55,24.55,0,0,0-12,17.63l-.25,1.6c-1.28,8.13,1.42,15,7.61,19.29l58.71,37.34.61.35a14.54,14.54,0,0,0,6.52,1.7h1.08a17,17,0,0,0,11.27-5.24,20.7,20.7,0,0,0,5.83-11.41,17.93,17.93,0,0,0-1.15-10,15.4,15.4,0,0,0-6.43-7.5L206,435.27l50.13-27.33a21.75,21.75,0,0,0,7.42-6.49,21.43,21.43,0,0,0,4-9.24,17.15,17.15,0,0,0-2.49-12.8" transform="translate(91.43 3)"/><path class="cls-12" d="M382.89,333h0c1-5.39,0-10.21-2.9-13.94a14.52,14.52,0,0,0-13.56-5.53,19.35,19.35,0,0,0-10.71,4.66,23.69,23.69,0,0,0-6.4,8.68L269.54,501.2a23.09,23.09,0,0,0-1.8,5.55A17.87,17.87,0,0,0,270,519.66a14.54,14.54,0,0,0,11.84,6.86h1.66a16.6,16.6,0,0,0,9.32-3.39,20.35,20.35,0,0,0,6.48-8.24L380.92,339a24.82,24.82,0,0,0,2-5.93" transform="translate(91.43 3)"/><path class="cls-12" d="M500.43,405.39l-83.1-40-.15-.07a15.53,15.53,0,0,0-7.52-1.27,20,20,0,0,0-12.78,6,22.45,22.45,0,0,0-6.54,12.25,17.4,17.4,0,0,0,1.44,11,15.7,15.7,0,0,0,7.59,7.64l55.06,27.24-67.59,30.4A22.39,22.39,0,0,0,378.4,465a21,21,0,0,0-4.72,9.82,17.73,17.73,0,0,0,2.7,13.56A15.25,15.25,0,0,0,388.84,495h1.26a17.59,17.59,0,0,0,6.14-1.39l97.49-42.7.18-.08c9.39-4.42,15.27-11.51,17-20.5l.39-2c1.91-9.85-2.06-18.18-10.89-22.85" transform="translate(91.43 3)"/><g class="cls-13"><g class="cls-14"><path class="cls-12" d="M349,146.61l-202.28,6.12c-11.29.34-18.43-9.57-16-22s13.65-23.17,25-23.78l203.57-10.9c14-.75,23.24,10.15,20.38,24.23S362.94,146.19,349,146.61" transform="translate(91.43 3)"/><path class="cls-12" d="M330.85,236.14l-200.1-2.27c-11.16-.12-18.21-10.37-15.78-22.77s13.53-22.68,24.77-22.81l201.32-2.44c13.85-.17,23,11.16,20.12,25.16s-16.57,25.29-30.33,25.13" transform="translate(91.43 3)"/><path class="cls-12" d="M207.75,319.6l-92.91-5c-11-.59-18-11.16-15.59-23.5s13.41-22.2,24.53-21.87L217.26,272c12.36.37,20.42,11.5,17.76,24.73s-15,23.48-27.27,22.83" transform="translate(91.43 3)"/></g></g></g></g></g></g></svg>