<svg fill="currentColor" t="1713006732443" class="icon" viewBox="0 0 1027 1024" version="1.1" xmlns="http://www.w3.org/2000/svg" p-id="17097" width="200" height="200"><path d="M513.95287 0.000685a512.001541 512.001541 0 1 0 513.952871 512.00154A513.233959 513.233959 0 0 0 513.95287 0.000685z m436.823994 473.556921h-133.888608a673.379935 673.379935 0 0 0-103.249308-349.185325 436.173551 436.173551 0 0 1 237.137916 349.185325zM476.535266 81.374559v393.312764h-188.286204c6.74407-195.509548 87.296331-359.421247 188.286204-393.312764z m0 469.003818v393.312764c-100.989873-33.891517-181.439433-197.768982-188.286204-393.312764z m76.033393 392.183047V550.378377h188.286204c-7.908021 195.578016-87.330565 358.325764-188.320438 392.217281z m0-469.003818V80.244842c100.989873 33.891517 181.439433 197.768982 188.286204 393.312764zM312.041591 125.467765a673.414168 673.414168 0 0 0-103.249307 349.185324H74.903675a445.348224 445.348224 0 0 1 237.103683-349.185324zM78.327061 550.412611H212.249903a673.414168 673.414168 0 0 0 103.249308 349.185324 433.742947 433.742947 0 0 1-237.206384-349.185324z m637.63979 349.185324a673.448402 673.448402 0 0 0 103.249307-349.185324h133.888609a446.306772 446.306772 0 0 1-237.17215 349.219558z" p-id="17098"></path></svg>