<svg t="1713715236519" class="icon" viewBox="0 0 1175 1024" version="1.1" xmlns="http://www.w3.org/2000/svg" p-id="6515" width="200" height="200"><path d="M87.272727 31.418182H663.272727c28.904727 0 52.363636 23.458909 34.909091 52.363636v837.818182c17.454545 28.904727-6.004364 52.363636-34.909091 52.363636H87.272727A52.363636 52.363636 0 0 1 34.909091 921.6V83.781818a52.363636 52.363636 0 0 1 52.363636-52.363636zM820.363636 293.236364h209.454546a52.363636 52.363636 0 0 1 52.224 48.453818l0.139636 3.909818V921.6a52.363636 52.363636 0 0 1-48.453818 52.224l-3.909818 0.139636h-209.454546v-104.727272H977.454545V397.963636h-157.090909V293.236364z m-209.454545 576V136.145455H139.636364v733.090909h471.272727z m-366.545455-209.454546h261.818182v104.727273H244.363636v-104.727273z" fill="#666666" p-id="6516"></path></svg>