<svg fill="currentColor" t="1713006132624" class="icon" viewBox="0 0 1024 1024" version="1.1" xmlns="http://www.w3.org/2000/svg" p-id="3445" width="200" height="200"><path d="M225.834667 286.165333a42.666667 42.666667 0 1 1 60.330666-60.330666l256 256a42.666667 42.666667 0 0 1 1.28 59.008l-234.666666 256a42.666667 42.666667 0 1 1-62.890667-57.685334l207.061333-225.877333-227.114666-227.114667z" p-id="3446"></path><path d="M512 725.333333m42.666667 0l341.333333 0q42.666667 0 42.666667 42.666667l0 0q0 42.666667-42.666667 42.666667l-341.333333 0q-42.666667 0-42.666667-42.666667l0 0q0-42.666667 42.666667-42.666667Z" opacity=".3" p-id="3447"></path></svg>