<svg t="1713308922203" class="icon" viewBox="0 0 1024 1024" version="1.1" xmlns="http://www.w3.org/2000/svg" p-id="10782" width="200" height="200"><path d="M1023.976595 585.152888a40.593358 40.593358 0 0 1-12.141437 29.402756 38.984252 38.984252 0 0 1-28.817627 12.434002h-143.356723c0 74.384585-14.262531 137.505428-42.860735 189.362529l133.116957 136.481452c8.04553 8.264954 12.141437 18.065873 12.141437 29.402756a40.520217 40.520217 0 0 1-12.141437 29.329615 37.66771 37.66771 0 0 1-28.817627 12.434002 37.66771 37.66771 0 0 1-28.817627-12.434002l-126.680533-128.655345c-2.194236 2.194236-5.339307 5.046742-9.581495 8.557519-4.31533 3.437636-13.238555 9.654636-26.915956 18.577861s-27.501086 16.822473-41.617335 23.844027a291.906471 291.906471 0 0 1-52.442229 18.943567 237.123723 237.123723 0 0 1-62.096867 8.484377v-585.129483H471.029234v585.129483a245.754383 245.754383 0 0 1-64.949373-8.776942 258.407808 258.407808 0 0 1-55.660442-21.57665 522.374346 522.374346 0 0 1-42.275605-25.526273 228.712487 228.712487 0 0 1-27.793651-21.210944l-9.654636-9.142648L153.596489 1010.322598a41.105346 41.105346 0 0 1-58.220383 3.291354 42.275605 42.275605 0 0 1-13.165414-29.110192 42.129323 42.129323 0 0 1 9.947202-30.353592l129.313615-148.257183c-24.794862-49.662865-37.155722-109.272931-37.155722-178.97648H40.959064a38.984252 38.984252 0 0 1-28.817627-12.434002A40.593358 40.593358 0 0 1 0 585.152888c0-11.336884 4.022765-21.137803 12.141437-29.402757a38.984252 38.984252 0 0 1 28.817627-12.434001h143.356723V351.466801L73.580032 238.390528a40.593358 40.593358 0 0 1-12.141436-29.402756c0-11.336884 4.095906-21.137803 12.141436-29.402757a38.984252 38.984252 0 0 1 28.817627-12.434001c11.11746 0 20.698955 4.169048 28.817628 12.434001L241.951041 292.588147h540.147654l110.662613-113.003132a38.984252 38.984252 0 0 1 28.817627-12.434001c11.11746 0 20.698955 4.169048 28.817627 12.434001 8.04553 8.264954 12.141437 18.065873 12.141437 29.402757a40.593358 40.593358 0 0 1-12.141437 29.402756L839.660808 351.39366v191.995611h143.356723c11.11746 0 20.698955 4.095906 28.817627 12.434002 8.04553 8.191813 12.141437 17.992732 12.141437 29.256474zM716.783616 208.987772H307.192978c0-57.854678 19.967544-107.224978 59.82949-147.891477A195.433247 195.433247 0 0 1 511.988297 0.023405c56.75756 0 105.103883 20.33325 144.96583 61.07289 39.861946 40.666499 59.82949 89.963658 59.829489 147.891477z" fill="#1C6BFF" p-id="10783"></path></svg>